Stairs_down_RAD
version=1
nRows=63
nColumns=18
inDegrees=no

Units are S.I. units (second, meters, Newtons, ...)
Angles are in degrees.

endheader
time	pelvis_tilt	pelvis_list	pelvis_rotation	pelvis_tx	pelvis_ty	pelvis_tz	hip_flexion_r	hip_adduction_r	hip_rotation_r	knee_angle_r	ankle_angle_r	hip_flexion_l	hip_adduction_l	hip_rotation_l	knee_angle_l	ankle_angle_l	lumbar_extension
0	-0.111698854	0.039489371	-0.031709632	-0.00030534	1.59332919	0.11409407	0.060584871	0.004470628	0	-0.196227877	0.166056699	0.273884689	0.038432287	0	-0.191415315	0.004727798	-0.0872665
0.008	-0.110949052	0.039682016	-0.027764994	0.0018304	1.5931925	0.11292125	0.057952839	0.003116382	0	-0.197995705	0.168967497	0.272897728	0.040013738	0	-0.194677357	0.005645178	-0.0872665
0.017	-0.11020953	0.039646181	-0.023222683	0.00402846	1.5929426	0.11167482	0.055601509	0.002032025	0	-0.200648303	0.173251214	0.272361935	0.041707417	0	-0.199176402	0.010417478	-0.0872665
0.025	-0.10989592	0.039823688	-0.020332388	0.00603018	1.59265501	0.11058155	0.05523029	0.000772773	0	-0.205661882	0.176575675	0.272227585	0.043313794	0	-0.20334113	0.014117511	-0.0872665
0.033	-0.109691693	0.039688842	-0.017919812	0.00778413	1.59240494	0.10966928	0.054616035	9.12762E-05	0	-0.208987348	0.176673868	0.271648915	0.044254532	0	-0.205457414	0.014228894	-0.0872665
0.042	-0.112585054	0.039605692	-0.016059416	0.00814346	1.59173696	0.10892151	0.063874988	-0.000405997	0	-0.222472693	0.182834951	0.2790875	0.044963679	0	-0.214086822	0.017298633	-0.0872665
0.05	-0.110148627	0.04030933	-0.01366257	0.01138331	1.59149582	0.10728654	0.058836838	-0.003287407	0	-0.225704583	0.185467825	0.273192601	0.047935303	0	-0.214072246	0.021247793	-0.0872665
0.058	-0.109256588	0.039807705	-0.01035124	0.01379245	1.59121566	0.10596426	0.057039183	-0.004146436	0	-0.230159161	0.185768995	0.270879349	0.049359371	0	-0.215519502	0.022406132	-0.0872665
0.067	-0.108882426	0.040201521	-0.008681475	0.0158358	1.5907477	0.1046612	0.059115708	-0.006041874	0	-0.240345288	0.190930965	0.26881012	0.051616663	0	-0.216683744	0.028806281	-0.0872665
0.075	-0.108763	0.039988532	-0.005756153	0.0178416	1.59022341	0.10331	0.061350325	-0.007274561	0	-0.25073409	0.196208803	0.268453841	0.053590594	0	-0.220017225	0.033131242	-0.0872665
0.083	-0.108122367	0.039953648	-0.003398415	0.02009059	1.58983564	0.10182334	0.062775351	-0.008973294	0	-0.260668942	0.198448514	0.266243189	0.055883595	0	-0.221224595	0.036976446	-0.0872665
0.092	-0.106781832	0.040092206	-0.001822226	0.02227311	1.58949197	0.10040187	0.06456798	-0.010913208	0	-0.272039883	0.199810234	0.262883944	0.058254664	0	-0.221749515	0.040497815	-0.0872665
0.1	-0.106725158	0.039917279	-1.88382E-05	0.02395573	1.58901456	0.09907175	0.071304039	-0.01232201	0	-0.289810658	0.203253265	0.262017633	0.060239329	0	-0.223289034	0.045649105	-0.0872665
0.108	-0.106659115	0.039821631	0.002070812	0.02573282	1.58861172	0.09759656	0.078741033	-0.014075598	0	-0.308784615	0.206150661	0.2613314	0.062583972	0	-0.225689787	0.050715076	-0.0872665
0.117	-0.105421163	0.040458504	0.004055294	0.02818242	1.58828723	0.09585909	0.08436234	-0.017088398	0	-0.328013451	0.209165115	0.257728421	0.06590544	0	-0.22684097	0.056706568	-0.0872665
0.125	-0.103775829	0.040769642	0.005387659	0.03081967	1.58815913	0.09417052	0.089832037	-0.019806526	0	-0.347873567	0.206861384	0.251880958	0.068658421	0	-0.224886064	0.061525067	-0.0872665
0.133	-0.103327561	0.041126611	0.006419345	0.03267501	1.58793429	0.09256553	0.101002087	-0.022684761	0	-0.374208298	0.205974342	0.250283212	0.071086674	0	-0.226873752	0.065723594	-0.0872665
0.142	-0.103132716	0.041016333	0.007979504	0.03435652	1.58766011	0.09097435	0.11446923	-0.025123112	0	-0.403986503	0.206515137	0.250493803	0.072998751	0	-0.231098687	0.069338524	-0.0872665
0.15	-0.102355437	0.040956579	0.008989045	0.036539	1.58753976	0.08930887	0.12700032	-0.027780355	0	-0.43336263	0.202848014	0.248005959	0.075049047	0	-0.232609692	0.072649442	-0.0872665
0.158	-0.102249293	0.04145246	0.009244492	0.03845837	1.58738064	0.08758054	0.143721324	-0.031424406	0	-0.468182278	0.196180651	0.246430767	0.077666183	0	-0.233829127	0.075373557	-0.0872665
0.167	-0.102091231	0.041853036	0.009581493	0.04023281	1.58726588	0.08582487	0.162940398	-0.035060007	0	-0.507289888	0.185972935	0.244491397	0.080345577	0	-0.233654255	0.076743434	-0.0872665
0.175	-0.102421313	0.042478188	0.010171873	0.04203308	1.58725149	0.08400219	0.184367474	-0.039211982	0	-0.548420247	0.171203548	0.242344864	0.083671985	0	-0.230854865	0.075973111	-0.0872665
0.183	-0.102927205	0.043293614	0.010271512	0.0436349	1.58706477	0.08213619	0.207466152	-0.043977042	0	-0.59141088	0.155205711	0.24077594	0.086645964	0	-0.23084886	0.078013524	-0.0872665
0.192	-0.102878557	0.044600586	0.010898613	0.04532706	1.58679667	0.08024062	0.230323557	-0.049622115	0	-0.635280047	0.139578089	0.237952479	0.090165661	0	-0.229371805	0.079527913	-0.0872665
0.2	-0.103478542	0.045810788	0.011320105	0.04700931	1.58645344	0.07829932	0.255675627	-0.055599852	0	-0.680375465	0.122258772	0.23534808	0.093477616	0	-0.22737373	0.082194761	-0.0872665
0.208	-0.103640568	0.047179375	0.01167729	0.0487311	1.58621796	0.07637668	0.282618354	-0.062161427	0	-0.72634609	0.099705318	0.231753435	0.096788352	0	-0.225292103	0.08633043	-0.0872665
0.217	-0.104617587	0.047994095	0.013042524	0.05001703	1.5858491	0.07462599	0.311705379	-0.067868678	0	-0.772103979	0.072918171	0.231885717	0.099475663	0	-0.227585965	0.090389639	-0.0872665
0.225	-0.104353925	0.049055519	0.014542898	0.05168238	1.58554366	0.07284913	0.337581999	-0.073550208	0	-0.815206648	0.050034918	0.228887474	0.102730562	0	-0.225818793	0.093595041	-0.0872665
0.233	-0.105783047	0.050035519	0.017601218	0.05301675	1.58498741	0.07112149	0.364948418	-0.079171919	0	-0.856069521	0.021704167	0.230354605	0.105988281	0	-0.228411573	0.096151509	-0.0872665
0.242	-0.106384602	0.050533312	0.02079321	0.05462398	1.58447999	0.0694363	0.389118723	-0.084353226	0	-0.89262934	-0.002357455	0.230437573	0.108582675	0	-0.231434012	0.100063267	-0.0872665
0.25	-0.105625014	0.050837715	0.024523064	0.0566952	1.58418868	0.067794	0.409473542	-0.089258581	0	-0.925239846	-0.014362226	0.227323571	0.111028108	0	-0.232619293	0.104417225	-0.0872665
0.258	-0.104060919	0.051127035	0.029241613	0.05913931	1.58406833	0.06618246	0.427180057	-0.094028418	0	-0.954157974	-0.023437172	0.222015245	0.113617391	0	-0.231813496	0.107947679	-0.0872665
0.267	-0.101913695	0.051647823	0.033211176	0.0618276	1.58396013	0.06457058	0.443566737	-0.098737284	0	-0.980518265	-0.026666639	0.215195416	0.116553213	0	-0.228962183	0.110621806	-0.0872665
0.275	-0.100824482	0.052338774	0.037545166	0.06418355	1.58373599	0.0629715	0.460347986	-0.103401968	0	-1.004224815	-0.018982646	0.212469405	0.119556975	0	-0.230626351	0.112980014	-0.0872665
0.283	-0.099657167	0.051858797	0.041259503	0.06652294	1.58353261	0.0616779	0.475304927	-0.105922379	0	-1.023786753	-0.005119783	0.209190763	0.120592193	0	-0.231210665	0.115332602	-0.0872665
0.292	-0.098701583	0.051759657	0.047204726	0.06883985	1.58327629	0.06018078	0.488575646	-0.108825057	0	-1.04014189	0.013743839	0.207349882	0.12271227	0	-0.235079719	0.119434546	-0.0872665
0.3	-0.097684642	0.051142383	0.052791745	0.07094559	1.58312291	0.05902717	0.501933333	-0.110538718	0	-1.05338025	0.025598136	0.205285904	0.12381401	0	-0.238635006	0.124667062	-0.0872665
0.308	-0.097127047	0.049791768	0.058100151	0.07287228	1.58300976	0.05795316	0.515526985	-0.11098875	0	-1.063149919	0.0298126	0.205072664	0.124026655	0	-0.244395579	0.1302029	-0.0872665
0.317	-0.095919383	0.047792699	0.062655953	0.07517079	1.58314768	0.05713829	0.526037537	-0.109841282	0	-1.067508296	0.03006325	0.20227157	0.123067322	0	-0.246590082	0.132428939	-0.0872665
0.325	-0.093895855	0.046333534	0.067970509	0.07786636	1.58343021	0.05617259	0.533176497	-0.109334269	0	-1.067570686	0.03052333	0.197877592	0.122664857	0	-0.24833008	0.132862724	-0.0872665
0.333	-0.093598402	0.045667385	0.072385087	0.08022315	1.58324758	0.05516057	0.544552704	-0.110189657	0	-1.069652393	0.031126576	0.196246195	0.123259063	0	-0.251603674	0.137471267	-0.0872665
0.342	-0.09236146	0.043805493	0.077125206	0.0829202	1.58329349	0.05427779	0.551546696	-0.109262783	0	-1.065786806	0.029240718	0.193015889	0.122258035	0	-0.25441053	0.142697083	-0.0872665
0.35	-0.090898842	0.042850991	0.081418533	0.08573261	1.58322392	0.05337566	0.557994846	-0.109369215	0	-1.060776026	0.029220192	0.189060547	0.122177662	0	-0.255967286	0.14397568	-0.0872665
0.358	-0.089204166	0.041065192	0.085745921	0.0885332	1.58308038	0.05263526	0.56333798	-0.108320153	0	-1.052285636	0.02339955	0.186440283	0.120908419	0	-0.261371507	0.153666612	-0.0872665
0.367	-0.087324005	0.039876002	0.091063739	0.09154823	1.58304401	0.05164243	0.566759191	-0.108457421	0	-1.040883914	0.018735378	0.182415365	0.12063578	0	-0.264477975	0.158450095	-0.0872665
0.375	-0.084570791	0.038433403	0.096219068	0.09505552	1.58314497	0.05062518	0.566537452	-0.107964855	0	-1.024843342	0.012077892	0.176713394	0.119796177	0	-0.267267015	0.162550818	-0.0872665
0.383	-0.081907351	0.037314398	0.100788135	0.09841755	1.58308115	0.04965333	0.566450843	-0.107540333	0	-1.007240361	0.001808491	0.172064618	0.119117706	0	-0.27163415	0.166707403	-0.0872665
0.392	-0.080710917	0.035645714	0.105322002	0.10132764	1.58280979	0.04883824	0.568705427	-0.106433604	0	-0.988295335	-0.017771881	0.169722327	0.117651088	0	-0.276161946	0.172839516	-0.0872665
0.4	-0.078958274	0.033892483	0.111216271	0.10449817	1.58254918	0.04794503	0.56786347	-0.10520057	0	-0.966139579	-0.032976779	0.167044487	0.11615927	0	-0.281742151	0.177963844	-0.0872665
0.408	-0.077633725	0.032335221	0.115655771	0.10748428	1.58210611	0.04715206	0.56789163	-0.103942088	0	-0.942078833	-0.056321092	0.165067483	0.114794848	0	-0.287593162	0.185306839	-0.0872665
0.417	-0.076736822	0.03062582	0.120363597	0.11027074	1.58150361	0.04638621	0.567433855	-0.102474571	0	-0.915916693	-0.081397444	0.164132148	0.113278272	0	-0.294027522	0.192804672	-0.0872665
0.425	-0.07525354	0.028572131	0.125423892	0.1132298	1.58081736	0.04578671	0.564611655	-0.100268606	0	-0.887710628	-0.106600802	0.16261032	0.11112286	0	-0.301017861	0.201119102	-0.0872665
0.433	-0.073970929	0.027604786	0.131097008	0.11619322	1.58000816	0.04501571	0.561456771	-0.099630684	0	-0.859077071	-0.135110915	0.161846046	0.110264371	0	-0.308759671	0.211201277	-0.0872665
0.442	-0.072182824	0.02559535	0.136260213	0.11928757	1.57921786	0.04446935	0.555871956	-0.096989549	0	-0.826613896	-0.16289945	0.160149672	0.107840225	0	-0.315427185	0.220288838	-0.0872665
0.45	-0.071031319	0.024335644	0.14169775	0.12216289	1.57824947	0.04372642	0.551661111	-0.095612763	0	-0.793825378	-0.19910867	0.159305343	0.106594663	0	-0.322996281	0.229343549	-0.0872665
0.458	-0.069646158	0.023161678	0.147486894	0.125096	1.57712272	0.04303238	0.546473434	-0.09426431	0	-0.760592176	-0.234803671	0.159169192	0.10521795	0	-0.333385787	0.238507151	-0.0872665
0.467	-0.068128148	0.022162909	0.153811807	0.12808434	1.57590405	0.04241142	0.540911103	-0.092894555	0	-0.727842062	-0.269917975	0.159280668	0.103881779	0	-0.344439075	0.248470404	-0.0872665
0.475	-0.066667031	0.020838521	0.159850324	0.13113734	1.57460592	0.04193558	0.53454521	-0.090777476	0	-0.694125504	-0.301248073	0.15977441	0.102022509	0	-0.355930026	0.260106286	-0.0872665
0.483	-0.065465167	0.020315212	0.164416769	0.13416404	1.5731738	0.04126407	0.528864685	-0.089557113	0	-0.661290307	-0.335768097	0.160822153	0.101330207	0	-0.368118957	0.271464705	-0.0872665
0.492	-0.063723911	0.019844574	0.168929208	0.1374442	1.57167075	0.04063814	0.521913896	-0.08813115	0	-0.628692632	-0.370588938	0.161103478	0.100438598	0	-0.380569289	0.283464844	-0.0872665
0.5	-0.06234985	0.019224849	0.174600418	0.14066903	1.56996967	0.04000598	0.51520989	-0.086720941	0	-0.597051752	-0.403839973	0.161761306	0.099376269	0	-0.392629853	0.296781997	-0.0872665
0.508	-0.060851931	0.019091662	0.179856593	0.14390402	1.568154	0.03944154	0.507852452	-0.085680808	0	-0.56566671	-0.434650249	0.162483961	0.098807602	0	-0.40564144	0.310413397	-0.0872665
0.517	-0.059415791	0.018625268	0.185512407	0.1471251	1.56617871	0.03887796	0.500009527	-0.084233677	0	-0.534780598	-0.456481695	0.164190267	0.097913953	0	-0.420831225	0.324107805	-0.0872665
